<svg id="레이어_1" data-name="레이어 1" xmlns="http://www.w3.org/2000/svg" viewBox="0 0 927.8 103.09"><path d="M137.89,1174.38a11.08,11.08,0,0,0-4,.77,3.11,3.11,0,0,0-2,3.22,28.68,28.68,0,0,0,1.11,4.88q1.11,4,2.88,9.42t3.77,11.75q2,6.32,3.88,12.19c1.26,3.92,2.36,7.47,3.33,10.64s1.58,5.51,1.88,7h.45a48.53,48.53,0,0,1,2.1-7.1q1.66-4.65,3.88-10.42t4.66-12.08q2.43-6.32,4.54-11.64t3.44-9.31a21.67,21.67,0,0,0,1.33-5.32,3.11,3.11,0,0,0-2-3.22,11.08,11.08,0,0,0-4-.77v-2.66h45v2.66a11.65,11.65,0,0,0-4.21.77,3.11,3.11,0,0,0-2,3.22,26.24,26.24,0,0,0,1.44,4.65q1.44,4,3.55,9.65t4.54,12.3q2.44,6.66,4.77,12.64t4,10.53q1.67,4.54,2.11,6.1h.44a70,70,0,0,1,1.88-7.21c1-3.18,2.07-6.68,3.33-10.53s2.55-7.79,3.88-11.86,2.58-7.91,3.77-11.53,2.14-6.76,2.88-9.42a25.5,25.5,0,0,0,1.11-5.32,3.11,3.11,0,0,0-2-3.22,11.65,11.65,0,0,0-4.21-.77v-2.66h36.8v2.66c-2.07.3-3.4,1-4,2a26.82,26.82,0,0,0-1.77,4c-.44,1.48-1.41,4.51-2.88,9.09s-3.26,9.91-5.32,16-4.18,12.41-6.32,19.06-4.18,12.83-6.1,18.51-3.47,10.46-4.65,14.3a52.37,52.37,0,0,0-1.78,6.43q0,2.22,6.21,2.88v2.66H196.86v-2.66q6.44-.66,6.43-2.88a22.51,22.51,0,0,0-1.33-5.1q-1.34-4-3.33-9.53l-4.32-12q-2.33-6.43-4.54-12.2T186,1214.73c-1-3-1.7-5-2-6.21h-.44c-.3,1.18-1,3.25-2,6.21s-2.29,6.35-3.77,10.19-3,7.91-4.54,12.2l-4.32,12q-2,5.55-3.33,9.53a22.51,22.51,0,0,0-1.33,5.1c0,.89.56,1.52,1.66,1.89a29.67,29.67,0,0,0,4.11,1v2.66h-45.9v-2.66q6-.66,6-2.88a52.75,52.75,0,0,0-2-7.31q-2-6.44-5-15.63t-6.54-20q-3.56-10.74-6.65-20.06t-5.21-15.85q-2.11-6.54-2.33-7.65a3.49,3.49,0,0,0-1.44-2.33,4.29,4.29,0,0,0-2.11-.55v-2.66h39Z" transform="translate(-98.87 -1166.84)"/><path d="M378.21,1266.6a9.33,9.33,0,0,0,1.77-.22c.74-.14,1.11-.74,1.11-1.77a8.36,8.36,0,0,0-.78-2.77c-.51-1.26-1.1-2.62-1.77-4.1s-1.37-3-2.1-4.44-1.34-2.73-1.78-3.77H323.23a29.43,29.43,0,0,1-1.44,3.77q-1,2.22-2.11,4.44c-.74,1.48-1.41,2.84-2,4.1a7.43,7.43,0,0,0-.89,2.77c0,1,.37,1.63,1.11,1.77a9.24,9.24,0,0,0,1.77.22v2.66H286.43v-2.66a6.89,6.89,0,0,0,2.66-.55,3.06,3.06,0,0,0,1.77-1.66q6.64-15.53,13.52-30.71t12.31-27.49q5.43-12.3,9-20.4t3.54-9.2c0-1.33-1-2.06-2.88-2.21v-2.66h46.34v2.66c-1.93.15-2.89.88-2.89,2.21q0,.67,2.33,5.88t6.1,13.08l8.31,17.4,9.09,19.07q4.54,9.54,8.54,18.07t6.43,14.3a3,3,0,0,0,1.77,1.66,6.85,6.85,0,0,0,2.66.55v2.66h-36.8Zm-29.71-71.83-18.18,38.8h36.8Z" transform="translate(-98.87 -1166.84)"/><path d="M509,1262.61c0,1.63.52,2.66,1.55,3.11a12,12,0,0,0,3.11.88v2.66h-39v-2.66a12.16,12.16,0,0,0,3.1-.88c1-.45,1.55-1.48,1.55-3.11V1234L437,1176.59a4.55,4.55,0,0,0-3-1.77,17.78,17.78,0,0,0-3.43-.44v-2.66h47.66v2.66a19.05,19.05,0,0,0-3.21.33,2,2,0,0,0-1.89,2.11c0,.74.7,2.1,2.11,4.1s3.14,4.4,5.21,7.2,4.36,5.81,6.87,9,4.88,6.25,7.1,9.2a60.75,60.75,0,0,1,4-6.21l6.54-9.31q3.43-4.87,6.09-8.87c1.78-2.66,2.67-4.35,2.67-5.09a2,2,0,0,0-1.78-2.11,16.42,16.42,0,0,0-2.88-.33v-2.66h43.9v2.66a15.67,15.67,0,0,0-3.11.44,4.46,4.46,0,0,0-2.88,1.77L509,1233.13Z" transform="translate(-98.87 -1166.84)"/><path d="M696.12,1170.39a79.16,79.16,0,0,1,21,2.88,59.53,59.53,0,0,1,19.07,9A47.18,47.18,0,0,1,750,1197.88q5.32,9.52,5.32,22.61,0,13.3-5.32,22.72a46.42,46.42,0,0,1-13.85,15.41,57.41,57.41,0,0,1-19.07,8.65,83.83,83.83,0,0,1-41.9,0,57.32,57.32,0,0,1-19.07-8.65,46.21,46.21,0,0,1-13.85-15.41q-5.32-9.42-5.32-22.72,0-13.08,5.32-22.61a47,47,0,0,1,13.85-15.63,59.43,59.43,0,0,1,19.07-9A79.11,79.11,0,0,1,696.12,1170.39Zm0,23.5a36.13,36.13,0,0,0-11.75,1.89,31,31,0,0,0-9.76,5.34,24.21,24.21,0,0,0-6.54,8.35,27.86,27.86,0,0,0,0,22.26,24.11,24.11,0,0,0,6.54,8.35,31.26,31.26,0,0,0,9.76,5.35,37.81,37.81,0,0,0,23.61,0,31.56,31.56,0,0,0,9.64-5.35,23.88,23.88,0,0,0,6.54-8.35,27.75,27.75,0,0,0,0-22.26,24,24,0,0,0-6.54-8.35,31.32,31.32,0,0,0-9.64-5.34A35.89,35.89,0,0,0,696.12,1193.89Z" transform="translate(-98.87 -1166.84)"/><path d="M785.91,1178.37a2.93,2.93,0,0,0-1.89-3.11,18.65,18.65,0,0,0-4.54-.88v-2.66h39.9v2.66a10.1,10.1,0,0,0-2.44.88c-.88.45-1.33,1.48-1.33,3.11v53.87q0,8.43,6.1,12.08t16.07,3.66q10,0,16.08-3.66t6.09-12.08v-53.87c0-1.63-.44-2.66-1.33-3.11a10,10,0,0,0-2.44-.88v-2.66h39.91v2.66a18.55,18.55,0,0,0-4.54.88,2.92,2.92,0,0,0-1.89,3.11v48.77a52,52,0,0,1-2.66,16.74,34.37,34.37,0,0,1-8.65,13.75q-6,5.86-16,9.09t-24.61,3.21q-14.62,0-24.61-3.21t-16-9.09a34.46,34.46,0,0,1-8.64-13.75,51.69,51.69,0,0,1-2.66-16.74Z" transform="translate(-98.87 -1166.84)"/><path d="M1020,1171.72a4.81,4.81,0,0,0,2.66-.89c.88-.59,1.33-1.92,1.33-4h2.66v32.37H1024c0-2.07-.45-3.4-1.33-4a4.81,4.81,0,0,0-2.66-.89H988.31v68.28c0,1.63.56,2.66,1.67,3.11a13.63,13.63,0,0,0,3.43.88v2.66h-39.9v-2.66a13.52,13.52,0,0,0,3.43-.88c1.11-.45,1.67-1.48,1.67-3.11v-68.28H926.9a4.81,4.81,0,0,0-2.66.89c-.88.59-1.33,1.92-1.33,4h-2.66v-32.37h2.66c0,2.07.45,3.4,1.33,4a4.81,4.81,0,0,0,2.66.89Z" transform="translate(-98.87 -1166.84)"/></svg>